<svg xmlns="http://www.w3.org/2000/svg" width="900" height="710.001">
  <rect x=".753" y="50.003" fill="#FFF" width="849.998" height="609.996"/>
  <rect x="90.758" fill="#FFF" width="809.995" height="710"/>
  <rect x="100.758" y="10.001" width="789.996" height="690"/>
  <g fill="#FFF">
    <rect x="280.756" y="340.001" width="10" height="10"/>
    <rect x="290.756" y="350.001" width="10" height="10"/>
    <rect x="300.756" y="340.001" width="10" height="10"/>
    <rect x="310.756" y="350.001" width="10" height="10"/>
    <rect x="320.756" y="340.001" width="10" height="10"/>
    <rect x="330.756" y="350.001" width="10" height="10"/>
    <rect x="340.756" y="340.001" width="10" height="10"/>
    <rect x="350.756" y="350.001" width="10" height="10"/>
    <rect x="360.756" y="340.001" width="10" height="10"/>
    <rect x="370.756" y="350.001" width="10" height="10"/>
    <rect x="380.756" y="340.001" width="10" height="10"/>
    <rect x="390.756" y="350.001" width="10" height="10"/>
    <rect x="400.756" y="340.001" width="10" height="10"/>
    <rect x="410.756" y="350.001" width="10" height="10"/>
    <rect x="420.756" y="340.001" width="10" height="10"/>
    <rect x="430.756" y="350.001" width="10" height="10"/>
    <rect x="440.756" y="340.001" width="10" height="10"/>
    <rect x="450.756" y="350.001" width="10" height="10"/>
    <rect x="460.756" y="340.001" width="10" height="10"/>
    <rect x="470.756" y="350.001" width="10" height="10"/>
    <rect x="480.756" y="340.001" width="10" height="10"/>
    <rect x="490.756" y="350.001" width="10" height="10"/>
    <rect x="500.756" y="340.001" width="10" height="10"/>
    <rect x="510.756" y="350.001" width="10" height="10"/>
    <rect x="520.756" y="340.001" width="10" height="10"/>
    <rect x="530.756" y="350.001" width="10" height="10"/>
    <rect x="540.756" y="340.001" width="10" height="10"/>
    <rect x="550.756" y="350.001" width="10" height="10"/>
    <rect x="560.756" y="340.001" width="10" height="10"/>
    <rect x="570.756" y="350.001" width="10" height="10"/>
    <rect x="580.756" y="340.001" width="10" height="10"/>
    <rect x="590.756" y="350.001" width="10" height="10"/>
    <rect x="600.756" y="340.001" width="10" height="10"/>
    <rect x="610.756" y="350.001" width="10" height="10"/>
    <rect x="620.756" y="340.001" width="10" height="10"/>
    <rect x="630.756" y="350.001" width="10" height="10"/>
    <rect x="640.756" y="340.001" width="10" height="10"/>
    <rect x="650.756" y="350.001" width="10" height="10"/>
    <rect x="660.756" y="340.001" width="10" height="10"/>
    <rect x="670.756" y="350.001" width="10" height="10"/>
    <rect x="680.756" y="340.001" width="10" height="10"/>
    <rect x="690.756" y="350.001" width="10" height="10"/>
    <rect x="700.756" y="340.001" width="10" height="10"/>
  </g>
  <g fill="#FFF">
    <rect x="280.756" y="380.003" width="10" height="10"/>
    <rect x="290.756" y="390.003" width="10" height="10"/>
    <rect x="300.756" y="380.003" width="10" height="10"/>
    <rect x="310.756" y="390.003" width="10" height="10"/>
    <rect x="320.756" y="380.003" width="10" height="10"/>
    <rect x="330.756" y="390.003" width="10" height="10"/>
    <rect x="340.756" y="380.003" width="10" height="10"/>
    <rect x="350.756" y="390.003" width="10" height="10"/>
    <rect x="360.756" y="380.003" width="10" height="10"/>
    <rect x="370.756" y="390.003" width="10" height="10"/>
    <rect x="380.756" y="380.003" width="10" height="10"/>
    <rect x="390.756" y="390.003" width="10" height="10"/>
    <rect x="400.756" y="380.003" width="10" height="10"/>
    <rect x="410.756" y="390.003" width="10" height="10"/>
    <rect x="420.756" y="380.003" width="10" height="10"/>
    <rect x="430.756" y="390.003" width="10" height="10"/>
    <rect x="440.756" y="380.003" width="10" height="10"/>
    <rect x="450.756" y="390.003" width="10" height="10"/>
    <rect x="460.756" y="380.003" width="10" height="10"/>
    <rect x="470.756" y="390.003" width="10" height="10"/>
    <rect x="480.756" y="380.003" width="10" height="10"/>
    <rect x="490.756" y="390.003" width="10" height="10"/>
    <rect x="500.756" y="380.003" width="10" height="10"/>
    <rect x="510.756" y="390.003" width="10" height="10"/>
    <rect x="520.756" y="380.003" width="10" height="10"/>
    <rect x="530.756" y="390.003" width="10" height="10"/>
    <rect x="540.756" y="380.003" width="10" height="10"/>
    <rect x="550.756" y="390.003" width="10" height="10"/>
    <rect x="560.756" y="380.003" width="10" height="10"/>
    <rect x="570.756" y="390.003" width="10" height="10"/>
    <rect x="580.756" y="380.003" width="10" height="10"/>
    <rect x="590.756" y="390.003" width="10" height="10"/>
    <rect x="600.756" y="380.003" width="10" height="10"/>
    <rect x="610.756" y="390.003" width="10" height="10"/>
    <rect x="620.756" y="380.003" width="10" height="10"/>
    <rect x="630.756" y="390.003" width="10" height="10"/>
    <rect x="640.756" y="380.003" width="10" height="10"/>
    <rect x="650.756" y="390.003" width="10" height="10"/>
    <rect x="660.756" y="380.003" width="10" height="10"/>
    <rect x="670.756" y="390.003" width="10" height="10"/>
    <rect x="680.756" y="380.003" width="10" height="10"/>
    <rect x="690.756" y="390.003" width="10" height="10"/>
    <rect x="700.756" y="380.003" width="10" height="10"/>
  </g>
  <g fill="#FFF">
    <rect x="280.756" y="420.005" width="10" height="10"/>
    <rect x="290.756" y="430.005" width="10" height="10"/>
    <rect x="300.756" y="420.005" width="10" height="10"/>
    <rect x="310.756" y="430.005" width="10" height="10"/>
    <rect x="320.756" y="420.005" width="10" height="10"/>
    <rect x="330.756" y="430.005" width="10" height="10"/>
    <rect x="340.756" y="420.005" width="10" height="10"/>
    <rect x="350.756" y="430.005" width="10" height="10"/>
    <rect x="360.756" y="420.005" width="10" height="10"/>
    <rect x="370.756" y="430.005" width="10" height="10"/>
    <rect x="380.756" y="420.005" width="10" height="10"/>
    <rect x="390.756" y="430.005" width="10" height="10"/>
  </g>
  <g fill="#FFF">
    <rect x="280.76" y="289.997" width="10" height="10"/>
    <rect x="280.76" y="269.997" width="10" height="10"/>
    <rect x="290.76" y="299.997" width="10" height="10"/>
    <rect x="300.76" y="289.997" width="10" height="10"/>
    <rect x="290.76" y="279.997" width="10" height="10"/>
    <rect x="300.76" y="269.997" width="10" height="10"/>
    <rect x="310.76" y="299.997" width="10" height="10"/>
    <rect x="320.76" y="289.997" width="10" height="10"/>
    <rect x="310.76" y="279.997" width="10" height="10"/>
    <rect x="320.76" y="269.997" width="10" height="10"/>
    <rect x="330.76" y="299.997" width="10" height="10"/>
    <rect x="340.76" y="289.997" width="10" height="10"/>
    <rect x="330.76" y="279.997" width="10" height="10"/>
    <rect x="340.76" y="269.997" width="10" height="10"/>
    <rect x="350.76" y="299.997" width="10" height="10"/>
    <rect x="360.76" y="289.997" width="10" height="10"/>
    <rect x="350.76" y="279.997" width="10" height="10"/>
    <rect x="360.76" y="269.997" width="10" height="10"/>
    <rect x="370.76" y="299.997" width="10" height="10"/>
    <rect x="380.76" y="289.997" width="10" height="10"/>
    <rect x="370.76" y="279.997" width="10" height="10"/>
    <rect x="380.76" y="269.997" width="10" height="10"/>
    <rect x="390.76" y="299.997" width="10" height="10"/>
    <rect x="400.76" y="289.997" width="10" height="10"/>
    <rect x="390.76" y="279.997" width="10" height="10"/>
    <rect x="400.76" y="269.997" width="10" height="10"/>
    <rect x="410.76" y="299.997" width="10" height="10"/>
    <rect x="420.76" y="289.997" width="10" height="10"/>
    <rect x="410.76" y="279.997" width="10" height="10"/>
    <rect x="420.76" y="269.997" width="10" height="10"/>
    <rect x="430.76" y="299.997" width="10" height="10"/>
    <rect x="440.76" y="289.997" width="10" height="10"/>
    <rect x="430.76" y="279.997" width="10" height="10"/>
    <rect x="440.76" y="269.997" width="10" height="10"/>
    <rect x="450.76" y="299.997" width="10" height="10"/>
    <rect x="460.76" y="289.997" width="10" height="10"/>
    <rect x="450.76" y="279.997" width="10" height="10"/>
    <rect x="460.76" y="269.997" width="10" height="10"/>
    <rect x="470.76" y="299.997" width="10" height="10"/>
    <rect x="480.76" y="289.997" width="10" height="10"/>
    <rect x="470.76" y="279.997" width="10" height="10"/>
    <rect x="480.76" y="269.997" width="10" height="10"/>
    <rect x="490.76" y="299.997" width="10" height="10"/>
    <rect x="500.76" y="289.997" width="10" height="10"/>
    <rect x="490.76" y="279.997" width="10" height="10"/>
    <rect x="500.76" y="269.997" width="10" height="10"/>
    <rect x="510.76" y="299.997" width="10" height="10"/>
    <rect x="520.76" y="289.997" width="10" height="10"/>
    <rect x="510.76" y="279.997" width="10" height="10"/>
    <rect x="520.76" y="269.997" width="10" height="10"/>
  </g>
  <g fill="#FFF">
    <rect x="130.76" y="330" width="10" height="10"/>
    <rect x="140.761" y="340" width="10" height="10"/>
    <rect x="140.761" y="359.999" width="10" height="10"/>
    <rect x="130.76" y="370.001" width="10" height="10"/>
    <rect x="100.759" y="350" width="60.002" height="9.999"/>
  </g>
</svg>
