<svg xmlns="http://www.w3.org/2000/svg" width="900" height="710.001">
  <rect x="-.248" y="-.595" fill="#FFF" width="900" height="710"/>
  <rect x="79.752" y="99.409" width="10" height="10"/>
  <rect x="79.752" y="79.409" width="10" height="10"/>
  <rect x="89.752" y="109.409" width="10" height="10"/>
  <rect x="99.752" y="99.409" width="10" height="10"/>
  <rect x="89.752" y="89.409" width="10" height="10"/>
  <rect x="99.752" y="79.409" width="10" height="10"/>
  <rect x="109.752" y="109.409" width="10" height="10"/>
  <rect x="119.752" y="99.409" width="10" height="10"/>
  <rect x="109.752" y="89.409" width="10" height="10"/>
  <rect x="119.752" y="79.409" width="10" height="10"/>
  <rect x="129.752" y="109.409" width="10" height="10"/>
  <rect x="139.752" y="99.409" width="10" height="10"/>
  <rect x="129.752" y="89.409" width="10" height="10"/>
  <rect x="139.752" y="79.409" width="10" height="10"/>
  <rect x="149.752" y="109.409" width="10" height="10"/>
  <rect x="159.752" y="99.409" width="10" height="10"/>
  <rect x="149.752" y="89.409" width="10" height="10"/>
  <rect x="159.752" y="79.409" width="10" height="10"/>
  <rect x="169.752" y="109.409" width="10" height="10"/>
  <rect x="179.752" y="99.409" width="10" height="10"/>
  <rect x="169.752" y="89.409" width="10" height="10"/>
  <rect x="179.752" y="79.409" width="10" height="10"/>
  <rect x="189.752" y="109.409" width="10" height="10"/>
  <rect x="199.752" y="99.409" width="10" height="10"/>
  <rect x="189.752" y="89.409" width="10" height="10"/>
  <rect x="199.752" y="79.409" width="10" height="10"/>
  <rect x="209.752" y="109.409" width="10" height="10"/>
  <rect x="219.752" y="99.409" width="10" height="10"/>
  <rect x="209.752" y="89.409" width="10" height="10"/>
  <rect x="219.752" y="79.409" width="10" height="10"/>
  <rect x="229.752" y="109.409" width="10" height="10"/>
  <rect x="239.752" y="99.409" width="10" height="10"/>
  <rect x="229.752" y="89.409" width="10" height="10"/>
  <rect x="239.752" y="79.409" width="10" height="10"/>
  <rect x="249.752" y="109.409" width="10" height="10"/>
  <rect x="259.752" y="99.409" width="10" height="10"/>
  <rect x="249.752" y="89.409" width="10" height="10"/>
  <rect x="259.752" y="79.409" width="10" height="10"/>
  <rect x="269.752" y="109.409" width="10" height="10"/>
  <rect x="279.752" y="99.409" width="10" height="10"/>
  <rect x="269.752" y="89.409" width="10" height="10"/>
  <rect x="279.752" y="79.409" width="10" height="10"/>
  <rect x="289.752" y="109.409" width="10" height="10"/>
  <rect x="299.752" y="99.409" width="10" height="10"/>
  <rect x="289.752" y="89.409" width="10" height="10"/>
  <rect x="299.752" y="79.409" width="10" height="10"/>
  <rect x="309.752" y="109.409" width="10" height="10"/>
  <rect x="319.752" y="99.409" width="10" height="10"/>
  <rect x="309.752" y="89.409" width="10" height="10"/>
  <rect x="319.752" y="79.409" width="10" height="10"/>
  <rect x="329.752" y="109.409" width="10" height="10"/>
  <rect x="339.752" y="99.409" width="10" height="10"/>
  <rect x="329.752" y="89.409" width="10" height="10"/>
  <rect x="339.752" y="79.409" width="10" height="10"/>
  <rect x="349.752" y="109.409" width="10" height="10"/>
  <rect x="359.752" y="99.409" width="10" height="10"/>
  <rect x="349.752" y="89.409" width="10" height="10"/>
  <rect x="359.752" y="79.409" width="10" height="10"/>
  <rect x="369.752" y="109.409" width="10" height="10"/>
  <rect x="379.752" y="99.409" width="10" height="10"/>
  <rect x="369.752" y="89.409" width="10" height="10"/>
  <rect x="379.752" y="79.409" width="10" height="10"/>
  <g>
    <rect x="79.752" y="139.409" width="10" height="10"/>
    <rect x="79.752" y="119.409" width="10" height="10"/>
    <rect x="99.752" y="139.409" width="10" height="10"/>
    <rect x="89.752" y="129.409" width="10" height="10"/>
    <rect x="99.752" y="119.409" width="10" height="10"/>
    <rect x="119.752" y="139.409" width="10" height="10"/>
    <rect x="109.752" y="129.409" width="10" height="10"/>
    <rect x="119.752" y="119.409" width="10" height="10"/>
    <rect x="139.752" y="139.409" width="10" height="10"/>
    <rect x="129.752" y="129.409" width="10" height="10"/>
    <rect x="139.752" y="119.409" width="10" height="10"/>
    <rect x="159.752" y="139.409" width="10" height="10"/>
    <rect x="149.752" y="129.409" width="10" height="10"/>
    <rect x="159.752" y="119.409" width="10" height="10"/>
    <rect x="179.752" y="139.409" width="10" height="10"/>
    <rect x="169.752" y="129.409" width="10" height="10"/>
    <rect x="179.752" y="119.409" width="10" height="10"/>
    <rect x="199.752" y="139.409" width="10" height="10"/>
    <rect x="189.752" y="129.409" width="10" height="10"/>
    <rect x="199.752" y="119.409" width="10" height="10"/>
    <rect x="219.752" y="139.409" width="10" height="10"/>
    <rect x="209.752" y="129.409" width="10" height="10"/>
    <rect x="219.752" y="119.409" width="10" height="10"/>
    <rect x="239.752" y="139.409" width="10" height="10"/>
    <rect x="229.752" y="129.409" width="10" height="10"/>
    <rect x="239.752" y="119.409" width="10" height="10"/>
    <rect x="259.752" y="139.409" width="10" height="10"/>
    <rect x="249.752" y="129.409" width="10" height="10"/>
    <rect x="259.752" y="119.409" width="10" height="10"/>
    <rect x="279.752" y="139.409" width="10" height="10"/>
    <rect x="269.752" y="129.409" width="10" height="10"/>
    <rect x="279.752" y="119.409" width="10" height="10"/>
    <rect x="299.752" y="139.409" width="10" height="10"/>
    <rect x="289.752" y="129.409" width="10" height="10"/>
    <rect x="299.752" y="119.409" width="10" height="10"/>
    <rect x="319.752" y="139.409" width="10" height="10"/>
    <rect x="309.752" y="129.409" width="10" height="10"/>
    <rect x="319.752" y="119.409" width="10" height="10"/>
    <rect x="339.752" y="139.409" width="10" height="10"/>
    <rect x="329.752" y="129.409" width="10" height="10"/>
    <rect x="339.752" y="119.409" width="10" height="10"/>
    <rect x="359.752" y="139.409" width="10" height="10"/>
    <rect x="349.752" y="129.409" width="10" height="10"/>
    <rect x="359.752" y="119.409" width="10" height="10"/>
    <rect x="379.752" y="139.409" width="10" height="10"/>
    <rect x="369.752" y="129.409" width="10" height="10"/>
    <rect x="379.752" y="119.409" width="10" height="10"/>
  </g>
  <g>
    <rect x="79.752" y="179.129" width="10" height="10"/>
    <rect x="89.752" y="189.129" width="10" height="10"/>
    <rect x="99.752" y="179.129" width="10" height="10"/>
    <rect x="109.752" y="189.129" width="10" height="10"/>
    <rect x="119.752" y="179.129" width="10" height="10"/>
    <rect x="129.752" y="189.129" width="10" height="10"/>
    <rect x="139.752" y="179.129" width="10" height="10"/>
    <rect x="149.752" y="189.129" width="10" height="10"/>
    <rect x="159.752" y="179.129" width="10" height="10"/>
    <rect x="169.752" y="189.129" width="10" height="10"/>
    <rect x="179.752" y="179.129" width="10" height="10"/>
    <rect x="189.752" y="189.129" width="10" height="10"/>
    <rect x="199.752" y="179.129" width="10" height="10"/>
    <rect x="209.752" y="189.129" width="10" height="10"/>
    <rect x="219.752" y="179.129" width="10" height="10"/>
    <rect x="229.752" y="189.129" width="10" height="10"/>
    <rect x="239.752" y="179.129" width="10" height="10"/>
    <rect x="249.752" y="189.129" width="10" height="10"/>
    <rect x="259.752" y="179.129" width="10" height="10"/>
    <rect x="269.752" y="189.129" width="10" height="10"/>
    <rect x="279.752" y="179.129" width="10" height="10"/>
    <rect x="289.752" y="189.129" width="10" height="10"/>
    <rect x="299.752" y="179.129" width="10" height="10"/>
    <rect x="309.752" y="189.129" width="10" height="10"/>
    <rect x="319.752" y="179.129" width="10" height="10"/>
    <rect x="329.752" y="189.129" width="10" height="10"/>
    <rect x="339.752" y="179.129" width="10" height="10"/>
    <rect x="349.752" y="189.129" width="10" height="10"/>
    <rect x="359.752" y="179.129" width="10" height="10"/>
    <rect x="369.752" y="189.129" width="10" height="10"/>
    <rect x="379.752" y="179.129" width="10" height="10"/>
    <rect x="389.752" y="189.129" width="10" height="10"/>
    <rect x="399.752" y="179.129" width="10" height="10"/>
    <rect x="409.752" y="189.129" width="10" height="10"/>
    <rect x="419.752" y="179.129" width="10" height="10"/>
    <rect x="429.752" y="189.129" width="10" height="10"/>
    <rect x="439.752" y="179.129" width="10" height="10"/>
    <rect x="449.752" y="189.129" width="10" height="10"/>
    <rect x="459.752" y="179.129" width="10" height="10"/>
    <rect x="469.752" y="189.129" width="10" height="10"/>
    <rect x="479.752" y="179.129" width="10" height="10"/>
    <rect x="489.752" y="189.129" width="10" height="10"/>
    <rect x="499.752" y="179.129" width="10" height="10"/>
  </g>
  <g>
    <rect x="79.752" y="219.131" width="10" height="10"/>
    <rect x="89.752" y="229.131" width="10" height="10"/>
    <rect x="99.752" y="219.131" width="10" height="10"/>
    <rect x="109.752" y="229.131" width="10" height="10"/>
    <rect x="119.752" y="219.131" width="10" height="10"/>
    <rect x="129.752" y="229.131" width="10" height="10"/>
    <rect x="139.752" y="219.131" width="10" height="10"/>
    <rect x="149.752" y="229.131" width="10" height="10"/>
    <rect x="159.752" y="219.131" width="10" height="10"/>
    <rect x="169.752" y="229.131" width="10" height="10"/>
    <rect x="179.752" y="219.131" width="10" height="10"/>
    <rect x="189.752" y="229.131" width="10" height="10"/>
    <rect x="199.752" y="219.131" width="10" height="10"/>
    <rect x="209.752" y="229.131" width="10" height="10"/>
    <rect x="219.752" y="219.131" width="10" height="10"/>
    <rect x="229.752" y="229.131" width="10" height="10"/>
    <rect x="239.752" y="219.131" width="10" height="10"/>
    <rect x="249.752" y="229.131" width="10" height="10"/>
    <rect x="259.752" y="219.131" width="10" height="10"/>
    <rect x="269.752" y="229.131" width="10" height="10"/>
    <rect x="279.752" y="219.131" width="10" height="10"/>
    <rect x="289.752" y="229.131" width="10" height="10"/>
  </g>
  <path d="M499.756 309.426h10v310h-10v10h-410v-10h-10v-310h10v-10h410v10z"/>
  <path fill="#FFF" d="M479.755 389.431v10h-30.001v-10h10.001v-10h10v10h10zM479.755 314.129v10h-10v10h-10v-10h-10v-10h30zM479.755 594.435v10h-10v10h-10v-10h-10v-10h30z"/>
  <rect x="99.757" y="349.131" fill="#FFF" width="390.01" height="9.999"/>
  <rect x="99.757" y="569.435" fill="#FFF" width="390.01" height="9.999"/>
</svg>
