<svg xmlns="http://www.w3.org/2000/svg" width="900" height="710.001">
  <rect x=".296" y="-.595" fill="#FFF" width="900" height="710"/>
  <rect x="235.294" y="99.409" width="10" height="10"/>
  <rect x="235.294" y="79.409" width="10" height="10"/>
  <rect x="245.294" y="109.409" width="10" height="10"/>
  <rect x="255.294" y="99.409" width="10" height="10"/>
  <rect x="245.294" y="89.409" width="10" height="10"/>
  <rect x="255.294" y="79.409" width="10" height="10"/>
  <rect x="265.294" y="109.409" width="10" height="10"/>
  <rect x="275.294" y="99.409" width="10" height="10"/>
  <rect x="265.294" y="89.409" width="10" height="10"/>
  <rect x="275.294" y="79.409" width="10" height="10"/>
  <rect x="285.294" y="109.409" width="10" height="10"/>
  <rect x="295.294" y="99.409" width="10" height="10"/>
  <rect x="285.294" y="89.409" width="10" height="10"/>
  <rect x="295.294" y="79.409" width="10" height="10"/>
  <rect x="305.294" y="109.409" width="10" height="10"/>
  <rect x="315.294" y="99.409" width="10" height="10"/>
  <rect x="305.294" y="89.409" width="10" height="10"/>
  <rect x="315.294" y="79.409" width="10" height="10"/>
  <rect x="325.294" y="109.409" width="10" height="10"/>
  <rect x="335.294" y="99.409" width="10" height="10"/>
  <rect x="325.294" y="89.409" width="10" height="10"/>
  <rect x="335.294" y="79.409" width="10" height="10"/>
  <rect x="345.294" y="109.409" width="10" height="10"/>
  <rect x="355.294" y="99.409" width="10" height="10"/>
  <rect x="345.294" y="89.409" width="10" height="10"/>
  <rect x="355.294" y="79.409" width="10" height="10"/>
  <rect x="365.294" y="109.409" width="10" height="10"/>
  <rect x="375.294" y="99.409" width="10" height="10"/>
  <rect x="365.294" y="89.409" width="10" height="10"/>
  <rect x="375.294" y="79.409" width="10" height="10"/>
  <rect x="385.294" y="109.409" width="10" height="10"/>
  <rect x="395.294" y="99.409" width="10" height="10"/>
  <rect x="385.294" y="89.409" width="10" height="10"/>
  <rect x="395.294" y="79.409" width="10" height="10"/>
  <rect x="405.294" y="109.409" width="10" height="10"/>
  <rect x="415.294" y="99.409" width="10" height="10"/>
  <rect x="405.294" y="89.409" width="10" height="10"/>
  <rect x="415.294" y="79.409" width="10" height="10"/>
  <rect x="425.294" y="109.409" width="10" height="10"/>
  <rect x="435.294" y="99.409" width="10" height="10"/>
  <rect x="425.294" y="89.409" width="10" height="10"/>
  <rect x="435.294" y="79.409" width="10" height="10"/>
  <rect x="445.294" y="109.409" width="10" height="10"/>
  <rect x="455.294" y="99.409" width="10" height="10"/>
  <rect x="445.294" y="89.409" width="10" height="10"/>
  <rect x="455.294" y="79.409" width="10" height="10"/>
  <rect x="465.294" y="109.409" width="10" height="10"/>
  <rect x="475.294" y="99.409" width="10" height="10"/>
  <rect x="465.294" y="89.409" width="10" height="10"/>
  <rect x="475.294" y="79.409" width="10" height="10"/>
  <rect x="485.294" y="109.409" width="10" height="10"/>
  <rect x="495.294" y="99.409" width="10" height="10"/>
  <rect x="485.294" y="89.409" width="10" height="10"/>
  <rect x="495.294" y="79.409" width="10" height="10"/>
  <rect x="505.294" y="109.409" width="10" height="10"/>
  <rect x="515.294" y="99.409" width="10" height="10"/>
  <rect x="505.294" y="89.409" width="10" height="10"/>
  <rect x="515.294" y="79.409" width="10" height="10"/>
  <rect x="525.294" y="109.409" width="10" height="10"/>
  <rect x="535.294" y="99.409" width="10" height="10"/>
  <rect x="525.294" y="89.409" width="10" height="10"/>
  <rect x="535.294" y="79.409" width="10" height="10"/>
  <g>
    <rect x="235.294" y="139.409" width="10" height="10"/>
    <rect x="235.294" y="119.409" width="10" height="10"/>
    <rect x="255.294" y="139.409" width="10" height="10"/>
    <rect x="245.294" y="129.409" width="10" height="10"/>
    <rect x="255.294" y="119.409" width="10" height="10"/>
    <rect x="275.294" y="139.409" width="10" height="10"/>
    <rect x="265.294" y="129.409" width="10" height="10"/>
    <rect x="275.294" y="119.409" width="10" height="10"/>
    <rect x="295.294" y="139.409" width="10" height="10"/>
    <rect x="285.294" y="129.409" width="10" height="10"/>
    <rect x="295.294" y="119.409" width="10" height="10"/>
    <rect x="315.294" y="139.409" width="10" height="10"/>
    <rect x="305.294" y="129.409" width="10" height="10"/>
    <rect x="315.294" y="119.409" width="10" height="10"/>
    <rect x="335.294" y="139.409" width="10" height="10"/>
    <rect x="325.294" y="129.409" width="10" height="10"/>
    <rect x="335.294" y="119.409" width="10" height="10"/>
    <rect x="355.294" y="139.409" width="10" height="10"/>
    <rect x="345.294" y="129.409" width="10" height="10"/>
    <rect x="355.294" y="119.409" width="10" height="10"/>
    <rect x="375.294" y="139.409" width="10" height="10"/>
    <rect x="365.294" y="129.409" width="10" height="10"/>
    <rect x="375.294" y="119.409" width="10" height="10"/>
    <rect x="395.294" y="139.409" width="10" height="10"/>
    <rect x="385.294" y="129.409" width="10" height="10"/>
    <rect x="395.294" y="119.409" width="10" height="10"/>
    <rect x="415.294" y="139.409" width="10" height="10"/>
    <rect x="405.294" y="129.409" width="10" height="10"/>
    <rect x="415.294" y="119.409" width="10" height="10"/>
    <rect x="435.294" y="139.409" width="10" height="10"/>
    <rect x="425.294" y="129.409" width="10" height="10"/>
    <rect x="435.294" y="119.409" width="10" height="10"/>
    <rect x="455.294" y="139.409" width="10" height="10"/>
    <rect x="445.294" y="129.409" width="10" height="10"/>
    <rect x="455.294" y="119.409" width="10" height="10"/>
    <rect x="475.294" y="139.409" width="10" height="10"/>
    <rect x="465.294" y="129.409" width="10" height="10"/>
    <rect x="475.294" y="119.409" width="10" height="10"/>
    <rect x="495.294" y="139.409" width="10" height="10"/>
    <rect x="485.294" y="129.409" width="10" height="10"/>
    <rect x="495.294" y="119.409" width="10" height="10"/>
    <rect x="515.294" y="139.409" width="10" height="10"/>
    <rect x="505.294" y="129.409" width="10" height="10"/>
    <rect x="515.294" y="119.409" width="10" height="10"/>
    <rect x="535.294" y="139.409" width="10" height="10"/>
    <rect x="525.294" y="129.409" width="10" height="10"/>
    <rect x="535.294" y="119.409" width="10" height="10"/>
  </g>
  <g>
    <rect x="235.294" y="179.129" width="10" height="10"/>
    <rect x="245.294" y="189.129" width="10" height="10"/>
    <rect x="255.294" y="179.129" width="10" height="10"/>
    <rect x="265.294" y="189.129" width="10" height="10"/>
    <rect x="275.294" y="179.129" width="10" height="10"/>
    <rect x="285.294" y="189.129" width="10" height="10"/>
    <rect x="295.294" y="179.129" width="10" height="10"/>
    <rect x="305.294" y="189.129" width="10" height="10"/>
    <rect x="315.294" y="179.129" width="10" height="10"/>
    <rect x="325.294" y="189.129" width="10" height="10"/>
    <rect x="335.294" y="179.129" width="10" height="10"/>
    <rect x="345.294" y="189.129" width="10" height="10"/>
    <rect x="355.294" y="179.129" width="10" height="10"/>
    <rect x="365.294" y="189.129" width="10" height="10"/>
    <rect x="375.294" y="179.129" width="10" height="10"/>
    <rect x="385.294" y="189.129" width="10" height="10"/>
    <rect x="395.294" y="179.129" width="10" height="10"/>
    <rect x="405.294" y="189.129" width="10" height="10"/>
    <rect x="415.294" y="179.129" width="10" height="10"/>
    <rect x="425.294" y="189.129" width="10" height="10"/>
    <rect x="435.294" y="179.129" width="10" height="10"/>
    <rect x="445.294" y="189.129" width="10" height="10"/>
    <rect x="455.294" y="179.129" width="10" height="10"/>
    <rect x="465.294" y="189.129" width="10" height="10"/>
    <rect x="475.294" y="179.129" width="10" height="10"/>
    <rect x="485.294" y="189.129" width="10" height="10"/>
    <rect x="495.294" y="179.129" width="10" height="10"/>
    <rect x="505.294" y="189.129" width="10" height="10"/>
    <rect x="515.294" y="179.129" width="10" height="10"/>
    <rect x="525.294" y="189.129" width="10" height="10"/>
    <rect x="535.294" y="179.129" width="10" height="10"/>
    <rect x="545.294" y="189.129" width="10" height="10"/>
    <rect x="555.294" y="179.129" width="10" height="10"/>
    <rect x="565.294" y="189.129" width="10" height="10"/>
    <rect x="575.294" y="179.129" width="10" height="10"/>
    <rect x="585.294" y="189.129" width="10" height="10"/>
    <rect x="595.294" y="179.129" width="10" height="10"/>
    <rect x="605.294" y="189.129" width="10" height="10"/>
    <rect x="615.294" y="179.129" width="10" height="10"/>
    <rect x="625.294" y="189.129" width="10" height="10"/>
    <rect x="635.294" y="179.129" width="10" height="10"/>
    <rect x="645.294" y="189.129" width="10" height="10"/>
    <rect x="655.294" y="179.129" width="10" height="10"/>
  </g>
  <g>
    <rect x="235.294" y="219.131" width="10" height="10"/>
    <rect x="245.294" y="229.131" width="10" height="10"/>
    <rect x="255.294" y="219.131" width="10" height="10"/>
    <rect x="265.294" y="229.131" width="10" height="10"/>
    <rect x="275.294" y="219.131" width="10" height="10"/>
    <rect x="285.294" y="229.131" width="10" height="10"/>
    <rect x="295.294" y="219.131" width="10" height="10"/>
    <rect x="305.294" y="229.131" width="10" height="10"/>
    <rect x="315.294" y="219.131" width="10" height="10"/>
    <rect x="325.294" y="229.131" width="10" height="10"/>
    <rect x="335.294" y="219.131" width="10" height="10"/>
    <rect x="345.294" y="229.131" width="10" height="10"/>
    <rect x="355.294" y="219.131" width="10" height="10"/>
    <rect x="365.294" y="229.131" width="10" height="10"/>
    <rect x="375.294" y="219.131" width="10" height="10"/>
    <rect x="385.294" y="229.131" width="10" height="10"/>
    <rect x="395.294" y="219.131" width="10" height="10"/>
    <rect x="405.294" y="229.131" width="10" height="10"/>
    <rect x="415.294" y="219.131" width="10" height="10"/>
    <rect x="425.294" y="229.131" width="10" height="10"/>
    <rect x="435.294" y="219.131" width="10" height="10"/>
    <rect x="445.294" y="229.131" width="10" height="10"/>
    <rect x="455.294" y="219.131" width="10" height="10"/>
    <rect x="465.294" y="229.131" width="10" height="10"/>
    <rect x="475.294" y="219.131" width="10" height="10"/>
    <rect x="485.294" y="229.131" width="10" height="10"/>
    <rect x="495.294" y="219.131" width="10" height="10"/>
    <rect x="505.294" y="229.131" width="10" height="10"/>
    <rect x="515.294" y="219.131" width="10" height="10"/>
    <rect x="525.294" y="229.131" width="10" height="10"/>
    <rect x="535.294" y="219.131" width="10" height="10"/>
    <rect x="545.294" y="229.131" width="10" height="10"/>
    <rect x="555.294" y="219.131" width="10" height="10"/>
    <rect x="565.294" y="229.131" width="10" height="10"/>
    <rect x="575.294" y="219.131" width="10" height="10"/>
    <rect x="585.294" y="229.131" width="10" height="10"/>
    <rect x="595.294" y="219.131" width="10" height="10"/>
    <rect x="605.294" y="229.131" width="10" height="10"/>
    <rect x="615.294" y="219.131" width="10" height="10"/>
    <rect x="625.294" y="229.131" width="10" height="10"/>
    <rect x="635.294" y="219.131" width="10" height="10"/>
    <rect x="645.294" y="229.131" width="10" height="10"/>
    <rect x="655.294" y="219.131" width="10" height="10"/>
  </g>
  <g>
    <rect x="235.294" y="259.133" width="10" height="10"/>
    <rect x="245.294" y="269.133" width="10" height="10"/>
    <rect x="255.294" y="259.133" width="10" height="10"/>
    <rect x="265.294" y="269.133" width="10" height="10"/>
    <rect x="275.294" y="259.133" width="10" height="10"/>
    <rect x="285.294" y="269.133" width="10" height="10"/>
    <rect x="295.294" y="259.133" width="10" height="10"/>
    <rect x="305.294" y="269.133" width="10" height="10"/>
    <rect x="315.294" y="259.133" width="10" height="10"/>
    <rect x="325.294" y="269.133" width="10" height="10"/>
    <rect x="335.294" y="259.133" width="10" height="10"/>
    <rect x="345.294" y="269.133" width="10" height="10"/>
    <rect x="355.294" y="259.133" width="10" height="10"/>
    <rect x="365.294" y="269.133" width="10" height="10"/>
    <rect x="375.294" y="259.133" width="10" height="10"/>
    <rect x="385.294" y="269.133" width="10" height="10"/>
    <rect x="395.294" y="259.133" width="10" height="10"/>
    <rect x="405.294" y="269.133" width="10" height="10"/>
    <rect x="415.294" y="259.133" width="10" height="10"/>
    <rect x="425.294" y="269.133" width="10" height="10"/>
    <rect x="435.294" y="259.133" width="10" height="10"/>
    <rect x="445.294" y="269.133" width="10" height="10"/>
  </g>
  <g>
    <rect x="235.294" y="569.435" width="10" height="10"/>
    <rect x="245.294" y="579.435" width="10" height="10"/>
    <rect x="255.294" y="569.435" width="10" height="10"/>
    <rect x="265.294" y="579.435" width="10" height="10"/>
    <rect x="275.294" y="569.435" width="10" height="10"/>
    <rect x="285.294" y="579.435" width="10" height="10"/>
    <rect x="295.294" y="569.435" width="10" height="10"/>
    <rect x="305.294" y="579.435" width="10" height="10"/>
    <rect x="315.294" y="569.435" width="10" height="10"/>
    <rect x="325.294" y="579.435" width="10" height="10"/>
    <rect x="335.294" y="569.435" width="10" height="10"/>
    <rect x="345.294" y="579.435" width="10" height="10"/>
    <rect x="355.294" y="569.435" width="10" height="10"/>
    <rect x="365.294" y="579.435" width="10" height="10"/>
    <rect x="375.294" y="569.435" width="10" height="10"/>
    <rect x="385.294" y="579.435" width="10" height="10"/>
    <rect x="395.294" y="569.435" width="10" height="10"/>
    <rect x="405.294" y="579.435" width="10" height="10"/>
    <rect x="415.294" y="569.435" width="10" height="10"/>
    <rect x="425.294" y="579.435" width="10" height="10"/>
    <rect x="435.294" y="569.435" width="10" height="10"/>
    <rect x="445.294" y="579.435" width="10" height="10"/>
    <rect x="455.294" y="569.435" width="10" height="10"/>
    <rect x="465.294" y="579.435" width="10" height="10"/>
    <rect x="475.294" y="569.435" width="10" height="10"/>
    <rect x="485.294" y="579.435" width="10" height="10"/>
    <rect x="495.294" y="569.435" width="10" height="10"/>
    <rect x="505.294" y="579.435" width="10" height="10"/>
    <rect x="515.294" y="569.435" width="10" height="10"/>
    <rect x="525.294" y="579.435" width="10" height="10"/>
    <rect x="535.294" y="569.435" width="10" height="10"/>
    <rect x="545.294" y="579.435" width="10" height="10"/>
    <rect x="555.294" y="569.435" width="10" height="10"/>
    <rect x="565.294" y="579.435" width="10" height="10"/>
    <rect x="575.294" y="569.435" width="10" height="10"/>
    <rect x="585.294" y="579.435" width="10" height="10"/>
    <rect x="595.294" y="569.435" width="10" height="10"/>
    <rect x="605.294" y="579.435" width="10" height="10"/>
    <rect x="615.294" y="569.435" width="10" height="10"/>
    <rect x="625.294" y="579.435" width="10" height="10"/>
    <rect x="635.294" y="569.435" width="10" height="10"/>
    <rect x="645.294" y="579.435" width="10" height="10"/>
    <rect x="655.294" y="569.435" width="10" height="10"/>
  </g>
  <g>
    <rect x="235.294" y="609.437" width="10" height="10"/>
    <rect x="245.294" y="619.437" width="10" height="10"/>
    <rect x="255.294" y="609.437" width="10" height="10"/>
    <rect x="265.294" y="619.437" width="10" height="10"/>
    <rect x="275.294" y="609.437" width="10" height="10"/>
    <rect x="285.294" y="619.437" width="10" height="10"/>
    <rect x="295.294" y="609.437" width="10" height="10"/>
    <rect x="305.294" y="619.437" width="10" height="10"/>
    <rect x="315.294" y="609.437" width="10" height="10"/>
    <rect x="325.294" y="619.437" width="10" height="10"/>
    <rect x="335.294" y="609.437" width="10" height="10"/>
    <rect x="345.294" y="619.437" width="10" height="10"/>
  </g>
  <g>
    <rect x="235.298" y="519.429" width="10" height="10"/>
    <rect x="235.298" y="499.429" width="10" height="10"/>
    <rect x="245.298" y="529.429" width="10" height="10"/>
    <rect x="255.298" y="519.429" width="10" height="10"/>
    <rect x="245.298" y="509.429" width="10" height="10"/>
    <rect x="255.298" y="499.429" width="10" height="10"/>
    <rect x="265.298" y="529.429" width="10" height="10"/>
    <rect x="275.298" y="519.429" width="10" height="10"/>
    <rect x="265.298" y="509.429" width="10" height="10"/>
    <rect x="275.298" y="499.429" width="10" height="10"/>
    <rect x="285.298" y="529.429" width="10" height="10"/>
    <rect x="295.298" y="519.429" width="10" height="10"/>
    <rect x="285.298" y="509.429" width="10" height="10"/>
    <rect x="295.298" y="499.429" width="10" height="10"/>
    <rect x="305.298" y="529.429" width="10" height="10"/>
    <rect x="315.298" y="519.429" width="10" height="10"/>
    <rect x="305.298" y="509.429" width="10" height="10"/>
    <rect x="315.298" y="499.429" width="10" height="10"/>
    <rect x="325.298" y="529.429" width="10" height="10"/>
    <rect x="335.298" y="519.429" width="10" height="10"/>
    <rect x="325.298" y="509.429" width="10" height="10"/>
    <rect x="335.298" y="499.429" width="10" height="10"/>
    <rect x="345.298" y="529.429" width="10" height="10"/>
    <rect x="355.298" y="519.429" width="10" height="10"/>
    <rect x="345.298" y="509.429" width="10" height="10"/>
    <rect x="355.298" y="499.429" width="10" height="10"/>
    <rect x="365.298" y="529.429" width="10" height="10"/>
    <rect x="375.298" y="519.429" width="10" height="10"/>
    <rect x="365.298" y="509.429" width="10" height="10"/>
    <rect x="375.298" y="499.429" width="10" height="10"/>
    <rect x="385.298" y="529.429" width="10" height="10"/>
    <rect x="395.298" y="519.429" width="10" height="10"/>
    <rect x="385.298" y="509.429" width="10" height="10"/>
    <rect x="395.298" y="499.429" width="10" height="10"/>
    <rect x="405.298" y="529.429" width="10" height="10"/>
    <rect x="415.298" y="519.429" width="10" height="10"/>
    <rect x="405.298" y="509.429" width="10" height="10"/>
    <rect x="415.298" y="499.429" width="10" height="10"/>
    <rect x="425.298" y="529.429" width="10" height="10"/>
    <rect x="435.298" y="519.429" width="10" height="10"/>
    <rect x="425.298" y="509.429" width="10" height="10"/>
    <rect x="435.298" y="499.429" width="10" height="10"/>
    <rect x="445.298" y="529.429" width="10" height="10"/>
    <rect x="455.298" y="519.429" width="10" height="10"/>
    <rect x="445.298" y="509.429" width="10" height="10"/>
    <rect x="455.298" y="499.429" width="10" height="10"/>
    <rect x="465.298" y="529.429" width="10" height="10"/>
    <rect x="475.298" y="519.429" width="10" height="10"/>
    <rect x="465.298" y="509.429" width="10" height="10"/>
    <rect x="475.298" y="499.429" width="10" height="10"/>
  </g>
  <polygon points="655.298,309.13 245.298,309.13 245.298,319.13 235.298,319.13 235.298,454.429 245.298,454.429 245.298,464.429 655.298,464.429 655.298,454.429 665.298,454.429 665.298,319.13 655.298,319.13"/>
  <rect x="265.299" y="339.131" fill="#FFF" width="160" height="9.999"/>
</svg>
