<svg xmlns="http://www.w3.org/2000/svg" width="900" height="710.001">
  <rect fill="#FFF" width="900" height="710.001"/>
  <rect x="10" y="10" width="880" height="70"/>
  <rect x="80" y="180.008" width="10" height="10"/>
  <rect x="80" y="160.008" width="10" height="10"/>
  <rect x="90" y="190.008" width="10" height="10"/>
  <rect x="100" y="180.008" width="10" height="10"/>
  <rect x="90" y="170.008" width="10" height="10"/>
  <rect x="100" y="160.008" width="10" height="10"/>
  <rect x="110" y="190.008" width="10" height="10"/>
  <rect x="120" y="180.008" width="10" height="10"/>
  <rect x="110" y="170.008" width="10" height="10"/>
  <rect x="120" y="160.008" width="10" height="10"/>
  <rect x="130" y="190.008" width="10" height="10"/>
  <rect x="140" y="180.008" width="10" height="10"/>
  <rect x="130" y="170.008" width="10" height="10"/>
  <rect x="140" y="160.008" width="10" height="10"/>
  <rect x="150" y="190.008" width="10" height="10"/>
  <rect x="160" y="180.008" width="10" height="10"/>
  <rect x="150" y="170.008" width="10" height="10"/>
  <rect x="160" y="160.008" width="10" height="10"/>
  <rect x="170" y="190.008" width="10" height="10"/>
  <rect x="180" y="180.008" width="10" height="10"/>
  <rect x="170" y="170.008" width="10" height="10"/>
  <rect x="180" y="160.008" width="10" height="10"/>
  <rect x="190" y="190.008" width="10" height="10"/>
  <rect x="200" y="180.008" width="10" height="10"/>
  <rect x="190" y="170.008" width="10" height="10"/>
  <rect x="200" y="160.008" width="10" height="10"/>
  <rect x="210" y="190.008" width="10" height="10"/>
  <rect x="220" y="180.008" width="10" height="10"/>
  <rect x="210" y="170.008" width="10" height="10"/>
  <rect x="220" y="160.008" width="10" height="10"/>
  <rect x="230" y="190.008" width="10" height="10"/>
  <rect x="240" y="180.008" width="10" height="10"/>
  <rect x="230" y="170.008" width="10" height="10"/>
  <rect x="240" y="160.008" width="10" height="10"/>
  <rect x="250" y="190.008" width="10" height="10"/>
  <rect x="260" y="180.008" width="10" height="10"/>
  <rect x="250" y="170.008" width="10" height="10"/>
  <rect x="260" y="160.008" width="10" height="10"/>
  <rect x="270" y="190.008" width="10" height="10"/>
  <rect x="280" y="180.008" width="10" height="10"/>
  <rect x="270" y="170.008" width="10" height="10"/>
  <rect x="280" y="160.008" width="10" height="10"/>
  <rect x="290" y="190.008" width="10" height="10"/>
  <rect x="300" y="180.008" width="10" height="10"/>
  <rect x="290" y="170.008" width="10" height="10"/>
  <rect x="300" y="160.008" width="10" height="10"/>
  <rect x="310" y="190.008" width="10" height="10"/>
  <rect x="320" y="180.008" width="10" height="10"/>
  <rect x="310" y="170.008" width="10" height="10"/>
  <rect x="320" y="160.008" width="10" height="10"/>
  <rect x="330" y="190.008" width="10" height="10"/>
  <rect x="340" y="180.008" width="10" height="10"/>
  <rect x="330" y="170.008" width="10" height="10"/>
  <rect x="340" y="160.008" width="10" height="10"/>
  <rect x="350" y="190.008" width="10" height="10"/>
  <rect x="360" y="180.008" width="10" height="10"/>
  <rect x="350" y="170.008" width="10" height="10"/>
  <rect x="360" y="160.008" width="10" height="10"/>
  <rect x="370" y="190.008" width="10" height="10"/>
  <rect x="380" y="180.008" width="10" height="10"/>
  <rect x="370" y="170.008" width="10" height="10"/>
  <rect x="380" y="160.008" width="10" height="10"/>
  <g>
    <rect x="80" y="220.008" width="10" height="10"/>
    <rect x="80" y="200.008" width="10" height="10"/>
    <rect x="100" y="220.008" width="10" height="10"/>
    <rect x="90" y="210.008" width="10" height="10"/>
    <rect x="100" y="200.008" width="10" height="10"/>
    <rect x="120" y="220.008" width="10" height="10"/>
    <rect x="110" y="210.008" width="10" height="10"/>
    <rect x="120" y="200.008" width="10" height="10"/>
    <rect x="140" y="220.008" width="10" height="10"/>
    <rect x="130" y="210.008" width="10" height="10"/>
    <rect x="140" y="200.008" width="10" height="10"/>
    <rect x="160" y="220.008" width="10" height="10"/>
    <rect x="150" y="210.008" width="10" height="10"/>
    <rect x="160" y="200.008" width="10" height="10"/>
    <rect x="180" y="220.008" width="10" height="10"/>
    <rect x="170" y="210.008" width="10" height="10"/>
    <rect x="180" y="200.008" width="10" height="10"/>
    <rect x="200" y="220.008" width="10" height="10"/>
    <rect x="190" y="210.008" width="10" height="10"/>
    <rect x="200" y="200.008" width="10" height="10"/>
    <rect x="220" y="220.008" width="10" height="10"/>
    <rect x="210" y="210.008" width="10" height="10"/>
    <rect x="220" y="200.008" width="10" height="10"/>
    <rect x="240" y="220.008" width="10" height="10"/>
    <rect x="230" y="210.008" width="10" height="10"/>
    <rect x="240" y="200.008" width="10" height="10"/>
    <rect x="260" y="220.008" width="10" height="10"/>
    <rect x="250" y="210.008" width="10" height="10"/>
    <rect x="260" y="200.008" width="10" height="10"/>
    <rect x="280" y="220.008" width="10" height="10"/>
    <rect x="270" y="210.008" width="10" height="10"/>
    <rect x="280" y="200.008" width="10" height="10"/>
    <rect x="300" y="220.008" width="10" height="10"/>
    <rect x="290" y="210.008" width="10" height="10"/>
    <rect x="300" y="200.008" width="10" height="10"/>
    <rect x="320" y="220.008" width="10" height="10"/>
    <rect x="310" y="210.008" width="10" height="10"/>
    <rect x="320" y="200.008" width="10" height="10"/>
    <rect x="340" y="220.008" width="10" height="10"/>
    <rect x="330" y="210.008" width="10" height="10"/>
    <rect x="340" y="200.008" width="10" height="10"/>
    <rect x="360" y="220.008" width="10" height="10"/>
    <rect x="350" y="210.008" width="10" height="10"/>
    <rect x="360" y="200.008" width="10" height="10"/>
    <rect x="380" y="220.008" width="10" height="10"/>
    <rect x="370" y="210.008" width="10" height="10"/>
    <rect x="380" y="200.008" width="10" height="10"/>
  </g>
  <g>
    <rect x="80" y="259.728" width="10" height="10"/>
    <rect x="90" y="269.728" width="10" height="10"/>
    <rect x="100" y="259.728" width="10" height="10"/>
    <rect x="110" y="269.728" width="10" height="10"/>
    <rect x="120" y="259.728" width="10" height="10"/>
    <rect x="130" y="269.728" width="10" height="10"/>
    <rect x="140" y="259.728" width="10" height="10"/>
    <rect x="150" y="269.728" width="10" height="10"/>
    <rect x="160" y="259.728" width="10" height="10"/>
    <rect x="170" y="269.728" width="10" height="10"/>
    <rect x="180" y="259.728" width="10" height="10"/>
    <rect x="190" y="269.728" width="10" height="10"/>
    <rect x="200" y="259.728" width="10" height="10"/>
    <rect x="210" y="269.728" width="10" height="10"/>
    <rect x="220" y="259.728" width="10" height="10"/>
    <rect x="230" y="269.728" width="10" height="10"/>
    <rect x="240" y="259.728" width="10" height="10"/>
    <rect x="250" y="269.728" width="10" height="10"/>
    <rect x="260" y="259.728" width="10" height="10"/>
    <rect x="270" y="269.728" width="10" height="10"/>
    <rect x="280" y="259.728" width="10" height="10"/>
    <rect x="290" y="269.728" width="10" height="10"/>
    <rect x="300" y="259.728" width="10" height="10"/>
    <rect x="310" y="269.728" width="10" height="10"/>
    <rect x="320" y="259.728" width="10" height="10"/>
    <rect x="330" y="269.728" width="10" height="10"/>
    <rect x="340" y="259.728" width="10" height="10"/>
    <rect x="350" y="269.728" width="10" height="10"/>
    <rect x="360" y="259.728" width="10" height="10"/>
    <rect x="370" y="269.728" width="10" height="10"/>
    <rect x="380" y="259.728" width="10" height="10"/>
    <rect x="390" y="269.728" width="10" height="10"/>
    <rect x="400" y="259.728" width="10" height="10"/>
    <rect x="410" y="269.728" width="10" height="10"/>
    <rect x="420" y="259.728" width="10" height="10"/>
    <rect x="430" y="269.728" width="10" height="10"/>
    <rect x="440" y="259.728" width="10" height="10"/>
    <rect x="450" y="269.728" width="10" height="10"/>
    <rect x="460" y="259.728" width="10" height="10"/>
    <rect x="470" y="269.728" width="10" height="10"/>
    <rect x="480" y="259.728" width="10" height="10"/>
    <rect x="490" y="269.728" width="10" height="10"/>
    <rect x="500" y="259.728" width="10" height="10"/>
  </g>
  <g>
    <rect x="80" y="299.729" width="10" height="10"/>
    <rect x="90" y="309.729" width="10" height="10"/>
    <rect x="100" y="299.729" width="10" height="10"/>
    <rect x="110" y="309.729" width="10" height="10"/>
    <rect x="120" y="299.729" width="10" height="10"/>
    <rect x="130" y="309.729" width="10" height="10"/>
    <rect x="140" y="299.729" width="10" height="10"/>
    <rect x="150" y="309.729" width="10" height="10"/>
    <rect x="160" y="299.729" width="10" height="10"/>
    <rect x="170" y="309.729" width="10" height="10"/>
    <rect x="180" y="299.729" width="10" height="10"/>
    <rect x="190" y="309.729" width="10" height="10"/>
    <rect x="200" y="299.729" width="10" height="10"/>
    <rect x="210" y="309.729" width="10" height="10"/>
    <rect x="220" y="299.729" width="10" height="10"/>
    <rect x="230" y="309.729" width="10" height="10"/>
    <rect x="240" y="299.729" width="10" height="10"/>
    <rect x="250" y="309.729" width="10" height="10"/>
    <rect x="260" y="299.729" width="10" height="10"/>
    <rect x="270" y="309.729" width="10" height="10"/>
    <rect x="280" y="299.729" width="10" height="10"/>
    <rect x="290" y="309.729" width="10" height="10"/>
    <rect x="300" y="299.729" width="10" height="10"/>
    <rect x="310" y="309.729" width="10" height="10"/>
    <rect x="320" y="299.729" width="10" height="10"/>
    <rect x="330" y="309.729" width="10" height="10"/>
    <rect x="340" y="299.729" width="10" height="10"/>
    <rect x="350" y="309.729" width="10" height="10"/>
    <rect x="360" y="299.729" width="10" height="10"/>
    <rect x="370" y="309.729" width="10" height="10"/>
    <rect x="380" y="299.729" width="10" height="10"/>
    <rect x="390" y="309.729" width="10" height="10"/>
    <rect x="400" y="299.729" width="10" height="10"/>
    <rect x="410" y="309.729" width="10" height="10"/>
    <rect x="420" y="299.729" width="10" height="10"/>
    <rect x="430" y="309.729" width="10" height="10"/>
    <rect x="440" y="299.729" width="10" height="10"/>
    <rect x="450" y="309.729" width="10" height="10"/>
    <rect x="460" y="299.729" width="10" height="10"/>
    <rect x="470" y="309.729" width="10" height="10"/>
    <rect x="480" y="299.729" width="10" height="10"/>
    <rect x="490" y="309.729" width="10" height="10"/>
    <rect x="500" y="299.729" width="10" height="10"/>
  </g>
  <g>
    <rect x="80" y="339.731" width="10" height="10"/>
    <rect x="90" y="349.731" width="10" height="10"/>
    <rect x="100" y="339.731" width="10" height="10"/>
    <rect x="110" y="349.731" width="10" height="10"/>
    <rect x="120" y="339.731" width="10" height="10"/>
    <rect x="130" y="349.731" width="10" height="10"/>
    <rect x="140" y="339.731" width="10" height="10"/>
    <rect x="150" y="349.731" width="10" height="10"/>
    <rect x="160" y="339.731" width="10" height="10"/>
    <rect x="170" y="349.731" width="10" height="10"/>
    <rect x="180" y="339.731" width="10" height="10"/>
    <rect x="190" y="349.731" width="10" height="10"/>
    <rect x="200" y="339.731" width="10" height="10"/>
    <rect x="210" y="349.731" width="10" height="10"/>
    <rect x="220" y="339.731" width="10" height="10"/>
    <rect x="230" y="349.731" width="10" height="10"/>
    <rect x="240" y="339.731" width="10" height="10"/>
    <rect x="250" y="349.731" width="10" height="10"/>
    <rect x="260" y="339.731" width="10" height="10"/>
    <rect x="270" y="349.731" width="10" height="10"/>
    <rect x="280" y="339.731" width="10" height="10"/>
    <rect x="290" y="349.731" width="10" height="10"/>
    <rect x="300" y="339.731" width="10" height="10"/>
    <rect x="310" y="349.731" width="10" height="10"/>
    <rect x="320" y="339.731" width="10" height="10"/>
    <rect x="330" y="349.731" width="10" height="10"/>
    <rect x="340" y="339.731" width="10" height="10"/>
    <rect x="350" y="349.731" width="10" height="10"/>
    <rect x="360" y="339.731" width="10" height="10"/>
    <rect x="370" y="349.731" width="10" height="10"/>
    <rect x="380" y="339.731" width="10" height="10"/>
    <rect x="390" y="349.731" width="10" height="10"/>
    <rect x="400" y="339.731" width="10" height="10"/>
    <rect x="410" y="349.731" width="10" height="10"/>
    <rect x="420" y="339.731" width="10" height="10"/>
    <rect x="430" y="349.731" width="10" height="10"/>
    <rect x="440" y="339.731" width="10" height="10"/>
    <rect x="450" y="349.731" width="10" height="10"/>
    <rect x="460" y="339.731" width="10" height="10"/>
    <rect x="470" y="349.731" width="10" height="10"/>
    <rect x="480" y="339.731" width="10" height="10"/>
    <rect x="490" y="349.731" width="10" height="10"/>
    <rect x="500" y="339.731" width="10" height="10"/>
  </g>
  <g>
    <rect x="80" y="379.733" width="10" height="10"/>
    <rect x="90" y="389.733" width="10" height="10"/>
    <rect x="100" y="379.733" width="10" height="10"/>
    <rect x="110" y="389.733" width="10" height="10"/>
    <rect x="120" y="379.733" width="10" height="10"/>
    <rect x="130" y="389.733" width="10" height="10"/>
    <rect x="140" y="379.733" width="10" height="10"/>
    <rect x="150" y="389.733" width="10" height="10"/>
    <rect x="160" y="379.733" width="10" height="10"/>
    <rect x="170" y="389.733" width="10" height="10"/>
    <rect x="180" y="379.733" width="10" height="10"/>
    <rect x="190" y="389.733" width="10" height="10"/>
    <rect x="200" y="379.733" width="10" height="10"/>
    <rect x="210" y="389.733" width="10" height="10"/>
    <rect x="220" y="379.733" width="10" height="10"/>
    <rect x="230" y="389.733" width="10" height="10"/>
    <rect x="240" y="379.733" width="10" height="10"/>
    <rect x="250" y="389.733" width="10" height="10"/>
    <rect x="260" y="379.733" width="10" height="10"/>
    <rect x="270" y="389.733" width="10" height="10"/>
    <rect x="280" y="379.733" width="10" height="10"/>
    <rect x="290" y="389.733" width="10" height="10"/>
  </g>
  <g>
    <rect x="80" y="570.028" width="10" height="10"/>
    <rect x="90" y="580.028" width="10" height="10"/>
    <rect x="100" y="570.028" width="10" height="10"/>
    <rect x="110" y="580.028" width="10" height="10"/>
    <rect x="120" y="570.028" width="10" height="10"/>
    <rect x="130" y="580.028" width="10" height="10"/>
    <rect x="140" y="570.028" width="10" height="10"/>
    <rect x="150" y="580.028" width="10" height="10"/>
    <rect x="160" y="570.028" width="10" height="10"/>
    <rect x="170" y="580.028" width="10" height="10"/>
    <rect x="180" y="570.028" width="10" height="10"/>
    <rect x="190" y="580.028" width="10" height="10"/>
    <rect x="200" y="570.028" width="10" height="10"/>
    <rect x="210" y="580.028" width="10" height="10"/>
    <rect x="220" y="570.028" width="10" height="10"/>
    <rect x="230" y="580.028" width="10" height="10"/>
    <rect x="240" y="570.028" width="10" height="10"/>
    <rect x="250" y="580.028" width="10" height="10"/>
    <rect x="260" y="570.028" width="10" height="10"/>
    <rect x="270" y="580.028" width="10" height="10"/>
    <rect x="280" y="570.028" width="10" height="10"/>
    <rect x="290" y="580.028" width="10" height="10"/>
    <rect x="300" y="570.028" width="10" height="10"/>
    <rect x="310" y="580.028" width="10" height="10"/>
    <rect x="320" y="570.028" width="10" height="10"/>
    <rect x="330" y="580.028" width="10" height="10"/>
    <rect x="340" y="570.028" width="10" height="10"/>
    <rect x="350" y="580.028" width="10" height="10"/>
    <rect x="360" y="570.028" width="10" height="10"/>
    <rect x="370" y="580.028" width="10" height="10"/>
    <rect x="380" y="570.028" width="10" height="10"/>
    <rect x="390" y="580.028" width="10" height="10"/>
    <rect x="400" y="570.028" width="10" height="10"/>
    <rect x="410" y="580.028" width="10" height="10"/>
    <rect x="420" y="570.028" width="10" height="10"/>
    <rect x="430" y="580.028" width="10" height="10"/>
    <rect x="440" y="570.028" width="10" height="10"/>
    <rect x="450" y="580.028" width="10" height="10"/>
    <rect x="460" y="570.028" width="10" height="10"/>
    <rect x="470" y="580.028" width="10" height="10"/>
    <rect x="480" y="570.028" width="10" height="10"/>
    <rect x="490" y="580.028" width="10" height="10"/>
    <rect x="500" y="570.028" width="10" height="10"/>
  </g>
  <g>
    <rect x="80" y="610.03" width="10" height="10"/>
    <rect x="90" y="620.03" width="10" height="10"/>
    <rect x="100" y="610.03" width="10" height="10"/>
    <rect x="110" y="620.03" width="10" height="10"/>
    <rect x="120" y="610.03" width="10" height="10"/>
    <rect x="130" y="620.03" width="10" height="10"/>
    <rect x="140" y="610.03" width="10" height="10"/>
    <rect x="150" y="620.03" width="10" height="10"/>
    <rect x="160" y="610.03" width="10" height="10"/>
    <rect x="170" y="620.03" width="10" height="10"/>
    <rect x="180" y="610.03" width="10" height="10"/>
    <rect x="190" y="620.03" width="10" height="10"/>
  </g>
  <g>
    <rect x="80.004" y="520.023" width="10" height="10"/>
    <rect x="80.004" y="500.023" width="10" height="10"/>
    <rect x="90.004" y="530.023" width="10" height="10"/>
    <rect x="100.004" y="520.023" width="10" height="10"/>
    <rect x="90.004" y="510.023" width="10" height="10"/>
    <rect x="100.004" y="500.023" width="10" height="10"/>
    <rect x="110.004" y="530.023" width="10" height="10"/>
    <rect x="120.004" y="520.023" width="10" height="10"/>
    <rect x="110.004" y="510.023" width="10" height="10"/>
    <rect x="120.004" y="500.023" width="10" height="10"/>
    <rect x="130.004" y="530.023" width="10" height="10"/>
    <rect x="140.004" y="520.023" width="10" height="10"/>
    <rect x="130.004" y="510.023" width="10" height="10"/>
    <rect x="140.004" y="500.023" width="10" height="10"/>
    <rect x="150.004" y="530.023" width="10" height="10"/>
    <rect x="160.004" y="520.023" width="10" height="10"/>
    <rect x="150.004" y="510.023" width="10" height="10"/>
    <rect x="160.004" y="500.023" width="10" height="10"/>
    <rect x="170.004" y="530.023" width="10" height="10"/>
    <rect x="180.004" y="520.023" width="10" height="10"/>
    <rect x="170.004" y="510.023" width="10" height="10"/>
    <rect x="180.004" y="500.023" width="10" height="10"/>
    <rect x="190.004" y="530.023" width="10" height="10"/>
    <rect x="200.004" y="520.023" width="10" height="10"/>
    <rect x="190.004" y="510.023" width="10" height="10"/>
    <rect x="200.004" y="500.023" width="10" height="10"/>
    <rect x="210.004" y="530.023" width="10" height="10"/>
    <rect x="220.004" y="520.023" width="10" height="10"/>
    <rect x="210.004" y="510.023" width="10" height="10"/>
    <rect x="220.004" y="500.023" width="10" height="10"/>
    <rect x="230.004" y="530.023" width="10" height="10"/>
    <rect x="240.004" y="520.023" width="10" height="10"/>
    <rect x="230.004" y="510.023" width="10" height="10"/>
    <rect x="240.004" y="500.023" width="10" height="10"/>
    <rect x="250.004" y="530.023" width="10" height="10"/>
    <rect x="260.004" y="520.023" width="10" height="10"/>
    <rect x="250.004" y="510.023" width="10" height="10"/>
    <rect x="260.004" y="500.023" width="10" height="10"/>
    <rect x="270.004" y="530.023" width="10" height="10"/>
    <rect x="280.004" y="520.023" width="10" height="10"/>
    <rect x="270.004" y="510.023" width="10" height="10"/>
    <rect x="280.004" y="500.023" width="10" height="10"/>
    <rect x="290.004" y="530.023" width="10" height="10"/>
    <rect x="300.004" y="520.023" width="10" height="10"/>
    <rect x="290.004" y="510.023" width="10" height="10"/>
    <rect x="300.004" y="500.023" width="10" height="10"/>
    <rect x="310.004" y="530.023" width="10" height="10"/>
    <rect x="320.004" y="520.023" width="10" height="10"/>
    <rect x="310.004" y="510.023" width="10" height="10"/>
    <rect x="320.004" y="500.023" width="10" height="10"/>
  </g>
  <g>
    <rect x="80.004" y="470.022" width="10" height="10"/>
    <rect x="80.004" y="450.022" width="10" height="10"/>
    <rect x="90.004" y="480.022" width="10" height="10"/>
    <rect x="100.004" y="470.022" width="10" height="10"/>
    <rect x="90.004" y="460.022" width="10" height="10"/>
    <rect x="100.004" y="450.022" width="10" height="10"/>
    <rect x="110.004" y="480.022" width="10" height="10"/>
    <rect x="120.004" y="470.022" width="10" height="10"/>
    <rect x="110.004" y="460.022" width="10" height="10"/>
    <rect x="120.004" y="450.022" width="10" height="10"/>
    <rect x="130.004" y="480.022" width="10" height="10"/>
    <rect x="140.004" y="470.022" width="10" height="10"/>
    <rect x="130.004" y="460.022" width="10" height="10"/>
    <rect x="140.004" y="450.022" width="10" height="10"/>
    <rect x="150.004" y="480.022" width="10" height="10"/>
    <rect x="160.004" y="470.022" width="10" height="10"/>
    <rect x="150.004" y="460.022" width="10" height="10"/>
    <rect x="160.004" y="450.022" width="10" height="10"/>
    <rect x="170.004" y="480.022" width="10" height="10"/>
    <rect x="180.004" y="470.022" width="10" height="10"/>
    <rect x="170.004" y="460.022" width="10" height="10"/>
    <rect x="180.004" y="450.022" width="10" height="10"/>
    <rect x="190.004" y="480.022" width="10" height="10"/>
    <rect x="200.004" y="470.022" width="10" height="10"/>
    <rect x="190.004" y="460.022" width="10" height="10"/>
    <rect x="200.004" y="450.022" width="10" height="10"/>
    <rect x="210.004" y="480.022" width="10" height="10"/>
    <rect x="220.004" y="470.022" width="10" height="10"/>
    <rect x="210.004" y="460.022" width="10" height="10"/>
    <rect x="220.004" y="450.022" width="10" height="10"/>
    <rect x="230.004" y="480.022" width="10" height="10"/>
    <rect x="240.004" y="470.022" width="10" height="10"/>
    <rect x="230.004" y="460.022" width="10" height="10"/>
    <rect x="240.004" y="450.022" width="10" height="10"/>
    <rect x="250.004" y="480.022" width="10" height="10"/>
    <rect x="260.004" y="470.022" width="10" height="10"/>
    <rect x="250.004" y="460.022" width="10" height="10"/>
    <rect x="260.004" y="450.022" width="10" height="10"/>
    <rect x="270.004" y="480.022" width="10" height="10"/>
    <rect x="280.004" y="470.022" width="10" height="10"/>
    <rect x="270.004" y="460.022" width="10" height="10"/>
    <rect x="280.004" y="450.022" width="10" height="10"/>
    <rect x="290.004" y="480.022" width="10" height="10"/>
    <rect x="300.004" y="470.022" width="10" height="10"/>
    <rect x="290.004" y="460.022" width="10" height="10"/>
    <rect x="300.004" y="450.022" width="10" height="10"/>
    <rect x="310.004" y="480.022" width="10" height="10"/>
    <rect x="320.004" y="470.022" width="10" height="10"/>
    <rect x="310.004" y="460.022" width="10" height="10"/>
    <rect x="320.004" y="450.022" width="10" height="10"/>
    <rect x="330.004" y="480.022" width="10" height="10"/>
    <rect x="340.004" y="470.022" width="10" height="10"/>
    <rect x="330.004" y="460.022" width="10" height="10"/>
    <rect x="340.004" y="450.022" width="10" height="10"/>
    <rect x="350.004" y="480.022" width="10" height="10"/>
    <rect x="360.004" y="470.022" width="10" height="10"/>
    <rect x="350.004" y="460.022" width="10" height="10"/>
    <rect x="360.004" y="450.022" width="10" height="10"/>
    <rect x="370.004" y="480.022" width="10" height="10"/>
    <rect x="380.004" y="470.022" width="10" height="10"/>
    <rect x="370.004" y="460.022" width="10" height="10"/>
    <rect x="380.004" y="450.022" width="10" height="10"/>
    <rect x="390.004" y="480.022" width="10" height="10"/>
    <rect x="400.004" y="470.022" width="10" height="10"/>
    <rect x="390.004" y="460.022" width="10" height="10"/>
    <rect x="400.004" y="450.022" width="10" height="10"/>
    <rect x="410.004" y="480.022" width="10" height="10"/>
    <rect x="420.004" y="470.022" width="10" height="10"/>
    <rect x="410.004" y="460.022" width="10" height="10"/>
    <rect x="420.004" y="450.022" width="10" height="10"/>
    <rect x="430.004" y="480.022" width="10" height="10"/>
    <rect x="440.004" y="470.022" width="10" height="10"/>
    <rect x="430.004" y="460.022" width="10" height="10"/>
    <rect x="440.004" y="450.022" width="10" height="10"/>
    <rect x="450.004" y="480.022" width="10" height="10"/>
    <rect x="460.004" y="470.022" width="10" height="10"/>
    <rect x="450.004" y="460.022" width="10" height="10"/>
    <rect x="460.004" y="450.022" width="10" height="10"/>
    <rect x="470.004" y="480.022" width="10" height="10"/>
    <rect x="480.004" y="470.022" width="10" height="10"/>
    <rect x="470.004" y="460.022" width="10" height="10"/>
    <rect x="480.004" y="450.022" width="10" height="10"/>
    <rect x="490.004" y="480.022" width="10" height="10"/>
    <rect x="500.004" y="470.022" width="10" height="10"/>
    <rect x="490.004" y="460.022" width="10" height="10"/>
    <rect x="500.004" y="450.022" width="10" height="10"/>
  </g>
  <g fill="#FFF">
    <rect x="40.001" y="50.001" width="10" height="10"/>
    <rect x="40.001" y="30.002" width="10" height="10"/>
    <rect x="30.001" y="40.002" width="10" height="9.999"/>
  </g>
  <rect x="80.002" y="40.002" fill="#FFF" width="300" height="9.999"/>
</svg>
